<svg width="26.666626" height="24.000000" viewBox="0 0 26.6666 24" fill="none" xmlns="http://www.w3.org/2000/svg" xmlns:xlink="http://www.w3.org/1999/xlink">
	<defs/>
	<path id="Vector" d="M0 0L2.66663 0C3.3999 0 4 0.599976 4 1.33331L4 13.3333C4 14.0667 3.3999 14.6667 2.66663 14.6667L0 14.6667L0 0ZM26.4401 9.49335C26.5865 9.82666 26.6666 10.1866 26.6666 10.56L26.6666 12C26.6666 13.4667 25.4667 14.6667 23.9999 14.6667L16.6666 14.6667L17.8933 20.8666C17.96 21.16 17.9199 21.48 17.7866 21.7466C17.48 22.3467 17.0933 22.8933 16.6133 23.3734L16 24L7.45325 15.4533C6.94666 14.9467 6.66663 14.2667 6.66663 13.56L6.66663 3.12C6.66663 1.40002 8.06665 0 9.78662 0L20.5865 0C21.5333 0 22.4 0.493347 22.88 1.29333L26.4401 9.49335Z" fill="#3A3541" fill-opacity="0.540000" fill-rule="evenodd"/>
</svg>
