<svg width="32.000000" height="32.000000" viewBox="0 0 32 32" fill="none" xmlns="http://www.w3.org/2000/svg" xmlns:xlink="http://www.w3.org/1999/xlink">
	<desc>
			Created with Pixso.
	</desc>
	<defs>
		<clipPath id="clip1_3075">
			<rect id="ThumbUpAlt" width="32.000000" height="32.000000" fill="white" fill-opacity="0"/>
		</clipPath>
	</defs>
	<rect id="ThumbUpAlt" width="32.000000" height="32.000000" fill="#FFFFFF" fill-opacity="0"/>
	<g clip-path="url(#clip1_3075)">
		<path id="Vector" d="M2.66675 26.6667L5.33337 26.6667C6.06677 26.6667 6.66675 26.0667 6.66675 25.3334L6.66675 13.3334C6.66675 12.6 6.06677 12 5.33337 12L2.66675 12L2.66675 26.6667ZM29.1067 17.1733C29.2534 16.84 29.3334 16.48 29.3334 16.1067L29.3334 14.6667C29.3334 13.2 28.1334 12 26.6667 12L19.3334 12L20.5601 5.80005C20.6267 5.50671 20.5868 5.18671 20.4534 4.92004C20.1467 4.32001 19.7601 3.77338 19.28 3.29333L18.6667 2.66669L10.1201 11.2134C9.6134 11.72 9.33337 12.4 9.33337 13.1067L9.33337 23.56C9.33337 25.2667 10.7334 26.6667 12.4534 26.6667L23.2667 26.6667C24.2001 26.6667 25.0801 26.1733 25.5601 25.3734L29.1067 17.1733Z" fill="#3A3541" fill-opacity="0.540000" fill-rule="evenodd"/>
	</g>
</svg>
